<?xml version="1.0" standalone="no"?>
<!DOCTYPE svg PUBLIC "-//W3C//DTD SVG 20010904//EN"
 "http://www.w3.org/TR/2001/REC-SVG-20010904/DTD/svg10.dtd">
<svg version="1.0" xmlns="http://www.w3.org/2000/svg"
 width="512.000000pt" height="512.000000pt" viewBox="0 0 512.000000 512.000000"
 preserveAspectRatio="xMidYMid meet">
<metadata>
Created by potrace 1.11, written by Peter Selinger 2001-2013
</metadata>
<g transform="translate(0.000000,512.000000) scale(0.100000,-0.100000)"
fill="#000000" stroke="none">
<path d="M2370 5114 c-19 -2 -78 -9 -130 -15 -791 -90 -1522 -586 -1924 -1305
-146 -262 -252 -588 -297 -914 -18 -125 -18 -515 0 -640 22 -162 61 -329 111
-482 49 -149 118 -308 147 -340 23 -26 75 -23 101 5 30 31 28 52 -12 139 -117
256 -186 531 -211 841 l-7 77 605 0 605 0 12 -82 c30 -209 113 -406 239 -571
l49 -64 -428 -428 -427 -427 -64 73 c-34 41 -92 114 -128 162 -35 49 -75 93
-88 98 -52 20 -114 -42 -94 -94 5 -13 43 -69 84 -123 875 -1158 2528 -1365
3652 -457 737 595 1082 1533 910 2469 -93 500 -330 951 -698 1323 -400 405
-889 652 -1462 737 -95 14 -471 27 -545 18z m110 -748 l0 -604 -82 -12 c-209
-30 -406 -113 -571 -239 l-64 -49 -427 427 -427 427 63 55 c283 247 625 430
971 518 162 42 365 74 505 80 l32 1 0 -604z m2000 -351 c231 -302 391 -670
454 -1047 20 -117 38 -316 31 -329 -4 -5 -250 -9 -605 -9 l-598 0 -7 63 c-24
208 -115 431 -245 600 l-48 64 154 154 c85 85 157 164 161 177 3 13 0 35 -6
50 -12 24 -8 29 57 94 65 65 70 69 94 57 15 -6 37 -9 50 -6 13 4 95 79 183
167 l160 161 48 -53 c26 -29 79 -93 117 -143z m-1668 -439 c192 -49 340 -129
475 -259 483 -464 409 -1253 -153 -1636 -214 -145 -517 -204 -773 -151 -251
51 -455 174 -610 366 -305 377 -318 907 -33 1290 171 230 414 373 704 414 103
14 281 4 390 -24z m1351 -2814 c-392 -354 -890 -563 -1445 -607 l-78 -6 0 604
0 605 82 12 c211 30 426 122 580 246 l53 43 428 -427 428 -427 -48 -43z
m-1686 -608 c-3 -3 -12 -4 -19 -1 -8 3 -5 6 6 6 11 1 17 -2 13 -5z"/>
</g>
</svg>
