<?xml version="1.0"?>
<svg xmlns="http://www.w3.org/2000/svg" xmlns:xlink="http://www.w3.org/1999/xlink" xmlns:svgjs="http://svgjs.com/svgjs" version="1.1" width="512" height="512" x="0" y="0" viewBox="0 0 511.96 511.96" style="enable-background:new 0 0 512 512" xml:space="preserve" class=""><g><g xmlns="http://www.w3.org/2000/svg"><g><circle cx="255.98" cy="255.98" fill="#608a19" r="248.479" data-original="#b3dafe" style="" class=""/></g><g><path d="m504.46 255.98h-248.48l175.7-175.7c44.97 44.96 72.78 107.08 72.78 175.7z" fill="#e6e5e3" data-original="#d83131" style="" class=""/></g><g><path d="m484.58 255.98c.09-2.75.14-5.51.14-8.28 0-61.48-22.33-117.75-59.33-161.13l6.29-6.29c1.4 1.4 2.79 2.83 4.16 4.26.65.68 1.28 1.35 1.92 2.03 2.735 2.905 5.485 6.034 8.04 9.06 2.662 3.152 5.252 6.364 7.758 9.642 3.706 4.848 7.178 9.751 10.512 14.858 8.65 13.248 16.203 27.374 22.08 42.07 3.112 7.782 5.929 15.69 8.3 23.76 2.95 10.04 5.28 20.35 6.94 30.87 1.248 7.911 2.061 15.813 2.562 23.8.138 2.205.259 4.411.345 6.619.018.461.383 8.731.162 8.731z" fill="#e6e5e3" data-original="#ca2c2c" style="" class=""/></g><g><path d="m431.68 431.68c-44.96 44.97-107.08 72.78-175.7 72.78v-248.48z" fill="#e6e5e3" data-original="#fec165" style="" class=""/></g><g><path d="m431.68 431.68c-44.96 44.97-107.08 72.78-175.7 72.78v-9.06c63.6-4.99 120.47-33.94 161.6-77.82z" fill="#e6e5e3" data-original="#fdb441" style="" class=""/></g><g><path d="m255.98 7.5v248.48l-175.7-175.7c44.96-44.97 107.08-72.78 175.7-72.78z" fill="#e6e5e3" data-original="#7c4b37" style="" class=""/></g><g><path d="m255.98 255.98-175.7 175.7c-44.97-44.96-72.78-107.08-72.78-175.7z" fill="#e6e5e3" data-original="#60b7ff" style="" class=""/></g><g><path d="m255.98 255.98 175.7 175.7c44.97-44.96 72.78-107.08 72.78-175.7z" fill="#608a19" data-original="#fec0dd" style="" class=""/></g><g><path d="m504.46 255.98c0 31.09-5.71 60.85-16.14 88.28-2.177 5.725-4.474 11.184-7.07 16.72-1.717 3.663-3.476 7.204-5.36 10.79-5.352 10.185-11.512 20.047-18.21 29.352-3.178 4.414-6.497 8.725-9.96 12.918-3.166 3.832-6.443 7.572-9.83 11.21-2.03 2.18-4.1 4.32-6.21 6.43l-14.1-14.1c39.89-42.56 64.96-99.16 67-161.6z" fill="#608a19" data-original="#fea3ce" style="" class=""/></g><g><path d="m80.28 431.68c44.96 44.97 107.08 72.78 175.7 72.78v-248.48z" fill="#608a19" data-original="#86e8d0" style="" class=""/></g><g><path d="m255.98 495.4v9.06c-2.447 0-4.851-.009-7.29-.11-10.342-.428-20.729-1.278-30.971-2.82-5.895-.888-11.614-2.012-17.439-3.34-2.15-.49-4.3-1.01-6.43-1.56-5.859-1.513-11.82-3.315-17.57-5.23-2.813-.937-5.609-1.95-8.38-3-6.02-2.28-11.92-4.79-17.7-7.52 26.81 9.9 55.79 15.3 86.04 15.3 6.64 0 13.23-.26 19.74-.78z" fill="#5de1c4" data-original="#5de1c4" style=""/></g><g><path d="m255.98 7.5v248.48l175.7-175.7c-44.96-44.97-107.08-72.78-175.7-72.78z" fill="#608a19" data-original="#bc7c63" style="" class=""/></g><g><path d="m431.68 80.28-6.32 6.32c-25.04-28.95-56.68-52.06-92.56-66.99.78.25 1.56.5 2.33.77 5.61 1.967 11.183 3.963 16.69 6.28 3.1 1.304 6.203 2.636 9.25 4.09 4.052 1.934 8.037 3.899 12.001 6.02 4.84 2.59 9.657 5.386 14.309 8.28 6.757 4.203 13.312 8.76 19.65 13.62 1.587 1.217 3.135 2.418 4.689 3.69 2.62 2.143 5.22 4.311 7.777 6.53 2.758 2.394 5.527 4.904 8.133 7.43.64.62 1.29 1.24 1.93 1.87.63.61 1.26 1.24 1.89 1.86.081.08.151.15.231.23z" fill="#aa6a51" data-original="#aa6a51" style=""/></g><g><circle cx="255.98" cy="255.98" fill="#e6e5e3" r="112.669" data-original="#eaf6ff" style="" class=""/></g><g><path d="m368.65 255.98c0 62.23-50.44 112.67-112.67 112.67-17.74 0-34.52-4.1-49.44-11.4 9.58 2.65 19.68 4.07 30.11 4.07 62.22 0 112.67-50.45 112.67-112.67 0-44.5-25.79-82.97-63.24-101.27 47.61 13.16 82.57 56.79 82.57 108.6z" fill="#d8ecfe" data-original="#d8ecfe" style="" class=""/></g><path d="m511.958 255.954c-.007-68.349-26.62-132.608-74.942-180.946-.011-.011-.02-.023-.031-.034s-.022-.019-.033-.03c-48.337-48.322-112.596-74.936-180.946-74.943-.009 0-.017-.001-.026-.001s-.017.001-.026.001c-68.358.007-132.625 26.628-180.966 74.962-.004.004-.009.008-.013.012s-.008.009-.012.013c-48.337 48.344-74.959 112.616-74.962 180.979 0 .004-.001.008-.001.013s.001.009.001.013c.002 39.316 8.683 77.037 25.802 112.115 1.817 3.723 6.306 5.266 10.03 3.451 3.722-1.817 5.267-6.307 3.451-10.03-15.021-30.779-23.132-63.73-24.163-98.049h120.931c1.702 27.497 12.69 52.518 29.862 71.959l-85.557 85.557c-8.795-9.361-16.91-19.484-24.23-30.324-2.318-3.433-6.98-4.337-10.413-2.018-3.433 2.318-4.336 6.98-2.018 10.413 47.734 70.683 127.083 112.884 212.261 112.892.008 0 .015.001.023.001.009 0 .017-.001.026-.001 68.351-.007 132.609-26.621 180.947-74.944.011-.011.022-.019.033-.03s.02-.023.031-.034c48.322-48.338 74.935-112.596 74.942-180.946 0-.009.001-.017.001-.026s-.002-.016-.002-.025zm-263.478-240.826v120.923c-27.497 1.702-52.518 12.69-71.96 29.862l-85.545-85.544c43.032-40.494 98.443-63.447 157.505-65.241zm-233.352 233.352c1.794-59.062 24.746-114.473 65.241-157.505l85.545 85.545c-17.172 19.442-28.16 44.462-29.862 71.959h-120.924zm233.352 248.363c-59.258-1.834-115.072-25.344-157.518-65.239l85.558-85.558c19.442 17.173 44.463 28.161 71.96 29.862zm-28.626-142.086c-55.471-20.351-83.533-84.561-61.131-138.8 2.965-7.18 6.738-14.023 11.21-20.377 19.962-28.362 51.223-44.554 86.047-44.474 13.704.032 27.391 2.628 40.092 7.795 26.185 10.653 46.1 30.477 57.052 56.782 23.609 56.705-8.201 123.223-66.653 140.962-21.853 6.63-45.222 5.961-66.617-1.888zm43.626 142.075v-120.924c27.497-1.702 52.518-12.69 71.959-29.862l85.545 85.545c-43.031 40.494-98.442 63.447-157.504 65.241zm168.112-75.848-85.545-85.545c17.172-19.442 28.16-44.462 29.862-71.959h120.923c-1.794 59.062-24.747 114.473-65.24 157.504zm-55.684-172.504c-1.702-27.497-12.69-52.517-29.862-71.959l29.699-29.699c2.929-2.929 2.929-7.678 0-10.606-2.93-2.929-7.678-2.929-10.607 0l-29.699 29.699c-19.442-17.172-44.462-28.16-71.959-29.862v-120.925c59.062 1.794 114.473 24.748 157.504 65.241l-30.745 30.745c-2.929 2.929-2.929 7.678 0 10.606 1.465 1.465 3.384 2.197 5.304 2.197 1.919 0 3.839-.732 5.304-2.197l30.745-30.744c40.493 43.031 63.446 98.442 65.24 157.504z" fill="#000000" data-original="#000000" style="" class=""/></g></g></svg>
