<?xml version="1.0"?>
<svg xmlns="http://www.w3.org/2000/svg" xmlns:xlink="http://www.w3.org/1999/xlink" xmlns:svgjs="http://svgjs.com/svgjs" version="1.1" width="512" height="512" x="0" y="0" viewBox="0 0 511.99984 511" style="enable-background:new 0 0 512 512" xml:space="preserve" class=""><g><path xmlns="http://www.w3.org/2000/svg" d="m420.167969 373.875-19.726563 19.726562c-13.738281 13.738282-30.183594 23.113282-47.617187 28.125-37.445313 10.746094-79.445313 1.375-108.9375-28.125l-125.15625-125.152343c-43.234375-43.230469-43.234375-113.328125 0-156.558594l19.726562-19.726563c7.386719-7.386718 19.363281-7.386718 26.75 0l51.507813 51.5c7.386718 7.386719 7.386718 19.363282 0 26.75l-19.726563 19.734376-5.957031 5.949218c-13.292969 13.292969-13.292969 34.847656 0 48.140625l77.066406 77.066407c13.289063 13.289062 34.847656 13.289062 48.136719 0l5.957031-5.953126 19.726563-19.730468c7.386719-7.386719 19.363281-7.386719 26.75 0l51.5 51.507812c7.386719 7.386719 7.386719 19.359375 0 26.746094zm0 0" fill="#e6e5e3" data-original="#ffcf70" style="" class=""/><path xmlns="http://www.w3.org/2000/svg" d="m352.824219 421.722656c-37.445313 10.75-79.445313 1.378906-108.9375-28.121094l-125.15625-125.152343c-43.234375-43.230469-43.234375-113.328125 0-156.558594l16.558593-16.558594 7.988282 41.105469c-19.429688 19.425781-40.492188 83.140625 7.476562 131.117188 47.976563 47.976562 99.296875 99.300781 113.246094 113.238281 10.449219 10.449219 50.585938 43.699219 88.824219 40.929687zm0 0" fill="#608a19" data-original="#ee9e04" style="" class=""/><path xmlns="http://www.w3.org/2000/svg" d="m216.714844 170.414062-19.726563 19.734376-78.257812-78.257813 19.726562-19.726563c7.386719-7.382812 19.363281-7.382812 26.75 0l24.542969 24.546876 27.03125 27.023437c7.320312 7.394531 7.296875 19.316406-.066406 26.679687zm0 0" fill="#608a19" data-original="#d6d3c4" style="" class=""/><path xmlns="http://www.w3.org/2000/svg" d="m216.714844 170.414062-19.726563 19.734376-53.710937-53.710938 19.726562-19.726562c7.386719-7.386719 19.359375-7.386719 26.746094 0l27.03125 27.023437c7.320312 7.394531 7.296875 19.316406-.066406 26.679687zm0 0" fill="#e6e5e3" data-original="#fbf2dc" style="" class=""/><path xmlns="http://www.w3.org/2000/svg" d="m420.167969 373.875-19.726563 19.726562-78.25-78.246093 19.726563-19.734375c7.386719-7.386719 19.363281-7.386719 26.75 0l51.5 51.507812c7.386719 7.386719 7.386719 19.359375 0 26.746094zm0 0" fill="#608a19" data-original="#d6d3c4" style="" class=""/><path xmlns="http://www.w3.org/2000/svg" d="m420.167969 373.871094-19.726563 19.734375-53.710937-53.710938 19.726562-19.726562c7.386719-7.386719 19.363281-7.386719 26.75 0l27.027344 27.023437c7.320313 7.394532 7.296875 19.316406-.066406 26.679688zm0 0" fill="#e6e5e3" data-original="#fbf2dc" style="" class=""/><path xmlns="http://www.w3.org/2000/svg" d="m510.628906 229.679688c-6.046875-58.140626-32.1875-112.964844-73.597656-154.375-48.238281-48.238282-112.527344-74.804688-181.023438-74.804688-68.5 0-132.789062 26.566406-181.027343 74.804688-48.351563 48.355468-74.980469 112.644531-74.980469 181.023437 0 68.382813 26.628906 132.671875 74.980469 181.023437 48.355469 48.355469 112.644531 74.984376 181.027343 74.984376 4.199219 0 7.601563-3.40625 7.601563-7.605469s-3.402344-7.601563-7.601563-7.601563c-64.320312 0-124.789062-25.046875-170.269531-70.53125-45.484375-45.480468-70.53125-105.949218-70.53125-170.269531 0-64.316406 25.046875-124.789063 70.53125-170.269531 45.363281-45.367188 105.832031-70.351563 170.269531-70.351563 64.433594 0 124.902344 24.984375 170.269532 70.351563 38.949218 38.953125 63.535156 90.515625 69.226562 145.195312 5.609375 53.90625-7.214844 108.628906-36.113281 154.089844-6.078125 9.5625-16 15.753906-27.21875 16.988281-8.542969.9375-16.960937-1.121093-23.992187-5.710937l17.363281-17.367188c5.011719-5.007812 7.769531-11.667968 7.769531-18.75 0-7.082031-2.757812-13.742187-7.765625-18.75l-51.503906-51.511718c-5.007813-5.007813-11.667969-7.765626-18.75-7.765626s-13.742188 2.757813-18.75 7.765626l-25.683594 25.683593c-4.992187 4.992188-11.628906 7.742188-18.695313 7.742188-7.058593 0-13.699218-2.75-18.691406-7.742188l-77.066406-77.066406c-10.304688-10.304687-10.304688-27.078125-.003906-37.378906l25.6875-25.6875c5.007812-5.007813 7.765625-11.667969 7.765625-18.75 0-7.085938-2.757813-13.742188-7.765625-18.753907l-51.507813-51.5c-5.007812-5.007812-11.667969-7.765624-18.75-7.765624s-13.742187 2.757812-18.753906 7.765624l-19.6875 19.691407c-.011719.011719-.027344.023437-.039063.035156-.015624.015625-.03125.035156-.046874.050781-22.316407 22.339844-34.605469 52.027344-34.605469 83.605469 0 31.601563 12.308593 61.3125 34.65625 83.65625l80.457031 80.457031c2.972656 2.96875 7.785156 2.96875 10.753906 0 2.972656-2.96875 2.972656-7.78125 0-10.753906l-80.457031-80.457031c-19.476563-19.472657-30.203125-45.363281-30.203125-72.902344 0-24.988281 8.832031-48.617187 25.019531-67.328125l18.972657 18.972656c1.484374 1.484375 3.433593 2.226563 5.378906 2.226563 1.945312 0 3.890625-.742188 5.375-2.226563 2.972656-2.96875 2.972656-7.785156 0-10.753906l-19.167969-19.167969 14.351563-14.351562c2.132812-2.136719 4.972656-3.3125 7.996093-3.3125 3.019531 0 5.859375 1.175781 7.996094 3.3125l51.507813 51.503906c2.136718 2.136719 3.316406 4.976563 3.316406 7.996094s-1.175782 5.859375-3.316406 7.996093l-14.351563 14.351563-23.132813-23.128906c-2.96875-2.972657-7.785156-2.972657-10.753906 0-2.96875 2.96875-2.96875 7.78125 0 10.753906l23.132813 23.128906-.578125.578125c-16.234375 16.234375-16.234375 42.65625 0 58.890625l77.066406 77.066407c7.867188 7.863281 18.324219 12.195312 29.449219 12.195312s21.582031-4.332031 29.441406-12.191406l.578125-.578125 67.292969 67.292969c-11.257813 9.707031-24.515625 16.925781-38.753907 21.015624-36.082031 10.359376-74.960937.320313-101.464843-26.191406l-18.839844-18.839844c-2.96875-2.96875-7.785156-2.96875-10.753906 0s-2.96875 7.785157 0 10.753907l18.839843 18.839843c22.496094 22.5 52.746094 34.65625 83.730469 34.65625 10.90625 0 21.910157-1.507812 32.6875-4.601562 15.238281-4.382812 29.496094-11.871094 41.824219-21.886719 10.527344 8.042969 23.695312 11.777344 37.085938 10.300781 15.828124-1.738281 29.820312-10.46875 38.386718-23.945312 30.730469-48.339844 44.371094-106.519531 38.40625-163.820312zm-163.332031 71.316406c2.136719-2.136719 4.976563-3.3125 7.996094-3.3125 3.023437 0 5.859375 1.175781 7.996093 3.3125l51.503907 51.511718c2.136719 2.136719 3.3125 4.976563 3.3125 7.996094 0 3.019532-1.175781 5.859375-3.3125 7.996094l-14.351563 14.347656-67.496094-67.496094zm0 0" fill="#608a19" data-original="#000000" style="" class=""/></g></svg>
